<?xml version="1.0" encoding="UTF-8"?>
<svg xmlns="http://www.w3.org/2000/svg"
     xmlns:sifa="https://credit.niso.org/sifa"
     viewBox="0 0 1300 835" width="1300" height="835"
     style="font-family: 'Montserrat','Segoe UI',Arial,sans-serif">
  <metadata>
    <sifa:AIContributionStatement>
      <![CDATA[{
  "schema": "CRediT Contributor Role Taxonomy — https://credit.niso.org/",
  "tool": "sIfA AI Contribution Statement Tool",
  "toolVersion": "1.1",
  "doi": "10.5281/zenodo.20285993",
  "generated": "2026-05-19T19:52:26.832Z",
  "extentScale": "0 = no AI use · 1 = some AI use · 2 = extensive AI use",
  "roles": [
    {
      "id": "conceptualization",
      "label": "Conceptualization",
      "definition": "Ideas; formulation or evolution of overarching research goals and aims.",
      "contributors": [
        {
          "name": "Mareike Schomerus",
          "level": "Sole",
          "aiTool": "Claude Sonnet 4.7",
          "reason": "To sharpen and stress test the conceptual ideas behind sIfA",
          "extent": 1,
          "extentLabel": "Some AI use"
        }
      ],
      "aiTool": null,
      "reason": null,
      "extent": 1,
      "extentLabel": "Some AI use"
    },
    {
      "id": "data_curation",
      "label": "Data Curation",
      "definition": "Management activities to annotate, scrub and maintain research data for initial use and later re-use.",
      "contributors": [],
      "aiTool": null,
      "reason": null,
      "extent": 0,
      "extentLabel": "No AI use"
    },
    {
      "id": "formal_analysis",
      "label": "Formal Analysis",
      "definition": "Application of statistical, mathematical, computational, or other formal techniques to analyse or synthesize study data.",
      "contributors": [],
      "aiTool": null,
      "reason": null,
      "extent": 0,
      "extentLabel": "No AI use"
    },
    {
      "id": "funding_acquisition",
      "label": "Funding Acquisition",
      "definition": "Acquisition of the financial support for the project leading to this publication.",
      "contributors": [],
      "aiTool": null,
      "reason": null,
      "extent": 0,
      "extentLabel": "No AI use"
    },
    {
      "id": "investigation",
      "label": "Investigation",
      "definition": "Conducting a research and investigation process, specifically performing the experiments, or data/evidence collection.",
      "contributors": [
        {
          "name": "Mareike Schomerus",
          "level": "Sole",
          "aiTool": null,
          "reason": null,
          "extent": 0,
          "extentLabel": "No AI use"
        }
      ],
      "aiTool": null,
      "reason": null,
      "extent": 0,
      "extentLabel": "No AI use"
    },
    {
      "id": "methodology",
      "label": "Methodology",
      "definition": "Development or design of methodology; creation of models.",
      "contributors": [
        {
          "name": "Mareike Schomerus",
          "level": "Sole",
          "aiTool": "Claude Sonnet 4.6 and Opus 4.7",
          "reason": "To get feedback on ideas and feasibility",
          "extent": 1,
          "extentLabel": "Some AI use"
        }
      ],
      "aiTool": null,
      "reason": null,
      "extent": 1,
      "extentLabel": "Some AI use"
    },
    {
      "id": "project_admin",
      "label": "Project Administration",
      "definition": "Management and coordination responsibility for the research activity planning and execution.",
      "contributors": [],
      "aiTool": null,
      "reason": null,
      "extent": 0,
      "extentLabel": "No AI use"
    },
    {
      "id": "resources",
      "label": "Resources",
      "definition": "Provision of study materials, reagents, materials, patients, laboratory samples, animals, instrumentation, computing resources, or other analysis tools.",
      "contributors": [],
      "aiTool": null,
      "reason": null,
      "extent": 0,
      "extentLabel": "No AI use"
    },
    {
      "id": "software",
      "label": "Software",
      "definition": "Programming, software development; designing computer programs; implementation of the computer code and supporting algorithms; testing of existing code components.",
      "contributors": [
        {
          "name": "Mareike Schomerus",
          "level": "Sole",
          "aiTool": "Claude Sonnet 4.6 and Opus 4.7",
          "reason": "For all vibe coding; a more detailed description is in Saleh, Engy, and Mareike Schomerus. 2026. The sIfA tool for a Statement of Intellectual Fellowship and Accountability: An invitation to reflect on how humans and AI interact in producing knowledge (Groundwork 32 Thought Piece). Nairobi: Busara. doi: 10.62372/IUPB2137",
          "extent": 2,
          "extentLabel": "Extensive AI use"
        }
      ],
      "aiTool": null,
      "reason": null,
      "extent": 2,
      "extentLabel": "Extensive AI use"
    },
    {
      "id": "supervision",
      "label": "Supervision",
      "definition": "Oversight and leadership responsibility for the research activity planning and execution, including mentorship external to the core team.",
      "contributors": [],
      "aiTool": null,
      "reason": null,
      "extent": 0,
      "extentLabel": "No AI use"
    },
    {
      "id": "validation",
      "label": "Validation",
      "definition": "Verification of the overall replication/reproducibility of results/experiments and other research outputs.",
      "contributors": [
        {
          "name": "Mareike Schomerus",
          "level": "Sole",
          "aiTool": "Claude Sonnet 4.6 and Opus 4.7",
          "reason": null,
          "extent": 0,
          "extentLabel": "No AI use"
        }
      ],
      "aiTool": null,
      "reason": null,
      "extent": 0,
      "extentLabel": "No AI use"
    },
    {
      "id": "visualization",
      "label": "Visualization",
      "definition": "Preparation, creation and/or presentation of the published work, specifically visualization/data presentation.",
      "contributors": [
        {
          "name": "Mareike Schomerus",
          "level": "Sole",
          "aiTool": null,
          "reason": "To turn all visual ideas into actual visuals",
          "extent": 2,
          "extentLabel": "Extensive AI use"
        }
      ],
      "aiTool": null,
      "reason": null,
      "extent": 2,
      "extentLabel": "Extensive AI use"
    },
    {
      "id": "writing_original",
      "label": "Writing – original draft",
      "definition": "Preparation, creation and/or presentation of the published work, specifically writing the initial draft (including substantive translation).",
      "contributors": [
        {
          "name": "Mareike Schomerus",
          "level": "Sole",
          "aiTool": "Claude Opus 4.7",
          "reason": "All software documentation was drafted by AI. AI also worded the author questions. Introductory text entirely human",
          "extent": 2,
          "extentLabel": "Extensive AI use"
        }
      ],
      "aiTool": null,
      "reason": null,
      "extent": 2,
      "extentLabel": "Extensive AI use"
    },
    {
      "id": "writing_review",
      "label": "Writing – review & editing",
      "definition": "Critical review, commentary or revision of the published work by those from the original research group, including pre- or post-publication stages.",
      "contributors": [
        {
          "name": "Mareike Schomerus",
          "level": "Sole",
          "aiTool": null,
          "reason": null,
          "extent": 0,
          "extentLabel": "No AI use"
        }
      ],
      "aiTool": null,
      "reason": null,
      "extent": 0,
      "extentLabel": "No AI use"
    }
  ]
}]]>
    </sifa:AIContributionStatement>
  </metadata>
  <g><rect width="520" height="835" fill="white"/><text x="260" y="36" text-anchor="middle" font-family="'Montserrat','Segoe UI',Arial,sans-serif" font-size="26" font-weight="700" fill="#1E293B">sIfA</text><svg x="10" y="56" width="500" height="463" viewBox="-25 0 670 620" xmlns="http://www.w3.org/2000/svg"><defs><clipPath id="brainClip"><path d="M314.0,116.2 L316.9,117.3 L319.8,118.6 L322.6,119.9 L325.4,121.3 L328.1,122.7 L330.8,124.1 L333.5,125.5 L336.1,126.9 L338.7,128.5 L341.2,130.2 L343.7,132.1 L346.0,134.2 L348.3,136.5 L350.4,139.0 L352.5,141.6 L354.5,144.2 L356.5,146.7 L358.4,149.1 L360.4,151.2 L362.5,152.7 L364.9,153.5 L367.2,154.3 L369.5,155.1 L371.8,156.0 L374.1,157.0 L376.4,157.9 L378.6,158.9 L380.8,159.9 L383.1,161.0 L385.3,162.1 L387.5,163.2 L389.6,164.4 L391.8,165.6 L393.9,166.9 L396.0,168.1 L398.1,169.4 L400.2,170.8 L402.2,172.1 L404.3,173.6 L406.3,175.0 L408.3,176.4 L410.6,177.4 L415.3,175.6 L420.2,173.6 L425.3,171.7 L430.4,170.0 L435.3,168.7 L440.0,167.8 L444.3,167.5 L448.2,167.8 L451.5,168.7 L454.4,170.2 L456.8,172.1 L458.8,174.4 L460.4,177.0 L461.7,179.8 L462.8,182.8 L463.7,185.9 L464.5,189.0 L465.2,192.2 L465.8,195.3 L466.2,198.6 L466.5,201.8 L466.7,205.1 L466.6,208.5 L466.4,211.8 L466.1,215.2 L465.7,218.6 L465.3,221.9 L465.0,225.1 L464.9,228.1 L465.2,230.9 L465.9,233.4 L467.0,235.8 L468.7,237.9 L470.9,239.9 L473.6,241.7 L476.6,243.5 L479.9,245.2 L483.3,247.0 L486.6,248.9 L489.6,251.0 L492.4,253.2 L494.6,255.6 L496.4,258.2 L497.7,260.9 L498.5,263.8 L499.0,266.7 L499.3,269.7 L499.6,272.6 L500.0,275.5 L500.6,278.4 L501.6,281.3 L503.1,284.1 L505.0,287.0 L507.4,289.8 L510.1,292.8 L513.0,295.7 L516.0,298.8 L518.9,302.0 L521.5,305.3 L523.7,308.6 L525.3,312.0 L526.2,315.4 L526.5,318.7 L526.1,322.0 L525.1,325.3 L523.5,328.5 L521.4,331.5 L518.9,334.5 L516.1,337.3 L513.1,340.0 L510.0,342.6 L506.7,345.1 L503.2,347.4 L499.6,349.6 L495.8,351.7 L491.8,353.7 L487.6,355.4 L483.3,357.0 L478.9,358.5 L474.5,359.8 L470.2,361.0 L466.0,362.2 L462.2,363.4 L458.9,364.7 L457.1,366.6 L456.1,368.8 L455.0,371.1 L453.9,373.3 L452.8,375.5 L453.2,378.5 L454.3,382.1 L455.7,385.8 L457.2,389.8 L458.6,393.7 L459.7,397.7 L460.3,401.5 L460.5,405.0 L460.2,408.2 L459.3,411.1 L458.0,413.7 L456.2,416.0 L454.2,418.0 L452.0,419.9 L449.8,421.7 L447.6,423.5 L445.5,425.5 L443.7,427.6 L442.0,430.0 L440.5,432.5 L439.1,435.2 L437.8,438.0 L436.4,440.8 L435.0,443.6 L433.4,446.3 L431.5,448.7 L429.5,450.9 L427.2,452.7 L424.6,454.2 L421.9,455.5 L419.0,456.4 L416.0,457.2 L412.9,457.8 L409.8,458.4 L406.8,458.9 L403.7,459.3 L400.7,459.8 L397.7,460.1 L394.7,460.4 L391.6,460.5 L388.5,460.4 L385.4,460.1 L382.1,459.5 L378.9,458.6 L375.6,457.5 L372.3,456.2 L369.1,455.0 L366.0,453.9 L363.1,453.1 L360.4,452.7 L357.9,452.9 L355.6,453.9 L353.4,455.6 L351.5,458.1 L349.6,461.4 L347.8,465.3 L346.0,469.8 L344.1,474.5 L342.1,479.3 L339.9,483.9 L337.5,488.2 L335.0,491.9 L332.2,494.9 L329.4,497.2 L326.4,498.6 L323.3,499.3 L320.2,499.2 L317.1,498.5 L314.0,497.3 L311.0,495.8 L308.0,494.0 L305.0,492.1 L302.2,490.2 L299.3,488.2 L296.6,486.3 L293.9,484.2 L291.2,482.1 L288.7,479.8 L286.2,477.4 L283.9,474.6 L281.6,471.7 L279.5,468.5 L277.6,465.1 L275.7,461.5 L274.0,457.9 L272.3,454.3 L270.2,452.8 L267.8,452.1 L265.5,451.3 L263.1,450.5 L260.8,449.7 L258.5,448.9 L256.2,448.0 L253.9,447.0 L251.6,446.1 L249.4,445.1 L247.2,444.1 L244.9,443.0 L242.7,441.9 L240.5,440.8 L238.4,439.6 L236.2,438.4 L234.1,437.1 L232.0,435.9 L229.9,434.6 L227.8,433.2 L225.8,431.9 L223.7,430.4 L221.7,429.0 L219.7,427.6 L217.8,426.1 L215.8,424.5 L213.9,423.0 L212.0,421.4 L210.2,419.8 L207.8,418.8 L202.7,420.5 L198.0,421.7 L193.7,422.3 L189.8,422.3 L186.4,421.8 L183.5,420.8 L180.9,419.3 L178.7,417.5 L176.9,415.5 L175.2,413.2 L173.8,410.8 L172.5,408.3 L171.3,405.6 L170.4,403.0 L169.5,400.2 L168.9,397.3 L168.5,394.3 L168.3,391.3 L168.4,388.1 L168.6,384.9 L169.0,381.7 L169.3,378.6 L169.7,375.5 L169.8,372.6 L169.7,369.9 L169.2,367.4 L168.2,365.1 L166.7,363.0 L164.8,361.1 L162.4,359.3 L159.6,357.6 L156.6,355.9 L153.5,354.1 L150.6,352.3 L147.8,350.3 L145.4,348.1 L143.4,345.8 L142.0,343.3 L141.0,340.7 L140.4,337.9 L140.2,335.2 L140.2,332.3 L140.2,329.5 L140.0,326.8 L139.6,324.0 L138.7,321.3 L137.5,318.7 L135.7,316.0 L133.4,313.4 L130.8,310.6 L127.9,307.8 L125.0,305.0 L122.1,302.0 L119.5,298.9 L117.3,295.8 L115.6,292.6 L114.6,289.5 L114.2,286.3 L114.5,283.1 L115.3,280.1 L116.8,277.1 L118.6,274.2 L120.9,271.4 L123.4,268.7 L126.2,266.2 L129.1,263.7 L132.1,261.3 L135.3,259.1 L138.6,257.0 L142.1,255.0 L145.7,253.1 L149.6,251.4 L153.6,249.9 L157.7,248.5 L161.8,247.2 L165.8,246.0 L168.0,244.2 L169.0,241.9 L169.9,239.6 L170.9,237.4 L171.9,235.2 L173.0,232.9 L174.1,230.7 L175.2,228.5 L176.4,226.4 L177.6,224.2 L177.5,221.3 L175.8,217.3 L174.3,213.4 L173.1,209.5 L172.3,205.7 L172.0,202.2 L172.3,199.1 L173.1,196.2 L174.4,193.7 L176.2,191.6 L178.2,189.7 L180.4,187.9 L182.7,186.2 L184.9,184.5 L187.0,182.7 L188.9,180.8 L190.7,178.7 L192.3,176.4 L193.7,173.9 L195.1,171.4 L196.6,168.8 L198.1,166.3 L199.8,164.0 L201.7,161.9 L203.9,160.0 L206.3,158.5 L208.9,157.3 L211.7,156.5 L214.7,155.8 L217.7,155.4 L220.8,155.2 L223.9,155.0 L227.0,154.8 L230.0,154.7 L233.0,154.7 L236.0,154.6 L238.9,154.7 L241.9,154.9 L245.0,155.3 L248.0,155.9 L251.2,156.8 L253.9,157.0 L256.2,156.0 L258.5,155.1 L260.8,154.3 L263.1,153.5 L265.5,152.7 L267.8,151.9 L270.2,151.2 L272.6,150.6 L275.0,149.9 L277.3,149.3 L279.8,148.8 L282.2,148.3 L284.5,147.4 L286.2,142.6 L288.0,137.6 L289.9,132.7 L292.0,128.2 L294.4,124.2 L296.9,120.9 L299.5,118.4 L302.3,116.6 L305.2,115.6 L308.1,115.2 L311.1,115.5 L314.0,116.2 Z"></path></clipPath><filter id="blobBlur" x="-20%" y="-20%" width="140%" height="140%"><feGaussianBlur stdDeviation="6"></feGaussianBlur></filter></defs><rect width="620" height="620" fill="white"></rect><path d="M314.0,116.2 L316.9,117.3 L319.8,118.6 L322.6,119.9 L325.4,121.3 L328.1,122.7 L330.8,124.1 L333.5,125.5 L336.1,126.9 L338.7,128.5 L341.2,130.2 L343.7,132.1 L346.0,134.2 L348.3,136.5 L350.4,139.0 L352.5,141.6 L354.5,144.2 L356.5,146.7 L358.4,149.1 L360.4,151.2 L362.5,152.7 L364.9,153.5 L367.2,154.3 L369.5,155.1 L371.8,156.0 L374.1,157.0 L376.4,157.9 L378.6,158.9 L380.8,159.9 L383.1,161.0 L385.3,162.1 L387.5,163.2 L389.6,164.4 L391.8,165.6 L393.9,166.9 L396.0,168.1 L398.1,169.4 L400.2,170.8 L402.2,172.1 L404.3,173.6 L406.3,175.0 L408.3,176.4 L410.6,177.4 L415.3,175.6 L420.2,173.6 L425.3,171.7 L430.4,170.0 L435.3,168.7 L440.0,167.8 L444.3,167.5 L448.2,167.8 L451.5,168.7 L454.4,170.2 L456.8,172.1 L458.8,174.4 L460.4,177.0 L461.7,179.8 L462.8,182.8 L463.7,185.9 L464.5,189.0 L465.2,192.2 L465.8,195.3 L466.2,198.6 L466.5,201.8 L466.7,205.1 L466.6,208.5 L466.4,211.8 L466.1,215.2 L465.7,218.6 L465.3,221.9 L465.0,225.1 L464.9,228.1 L465.2,230.9 L465.9,233.4 L467.0,235.8 L468.7,237.9 L470.9,239.9 L473.6,241.7 L476.6,243.5 L479.9,245.2 L483.3,247.0 L486.6,248.9 L489.6,251.0 L492.4,253.2 L494.6,255.6 L496.4,258.2 L497.7,260.9 L498.5,263.8 L499.0,266.7 L499.3,269.7 L499.6,272.6 L500.0,275.5 L500.6,278.4 L501.6,281.3 L503.1,284.1 L505.0,287.0 L507.4,289.8 L510.1,292.8 L513.0,295.7 L516.0,298.8 L518.9,302.0 L521.5,305.3 L523.7,308.6 L525.3,312.0 L526.2,315.4 L526.5,318.7 L526.1,322.0 L525.1,325.3 L523.5,328.5 L521.4,331.5 L518.9,334.5 L516.1,337.3 L513.1,340.0 L510.0,342.6 L506.7,345.1 L503.2,347.4 L499.6,349.6 L495.8,351.7 L491.8,353.7 L487.6,355.4 L483.3,357.0 L478.9,358.5 L474.5,359.8 L470.2,361.0 L466.0,362.2 L462.2,363.4 L458.9,364.7 L457.1,366.6 L456.1,368.8 L455.0,371.1 L453.9,373.3 L452.8,375.5 L453.2,378.5 L454.3,382.1 L455.7,385.8 L457.2,389.8 L458.6,393.7 L459.7,397.7 L460.3,401.5 L460.5,405.0 L460.2,408.2 L459.3,411.1 L458.0,413.7 L456.2,416.0 L454.2,418.0 L452.0,419.9 L449.8,421.7 L447.6,423.5 L445.5,425.5 L443.7,427.6 L442.0,430.0 L440.5,432.5 L439.1,435.2 L437.8,438.0 L436.4,440.8 L435.0,443.6 L433.4,446.3 L431.5,448.7 L429.5,450.9 L427.2,452.7 L424.6,454.2 L421.9,455.5 L419.0,456.4 L416.0,457.2 L412.9,457.8 L409.8,458.4 L406.8,458.9 L403.7,459.3 L400.7,459.8 L397.7,460.1 L394.7,460.4 L391.6,460.5 L388.5,460.4 L385.4,460.1 L382.1,459.5 L378.9,458.6 L375.6,457.5 L372.3,456.2 L369.1,455.0 L366.0,453.9 L363.1,453.1 L360.4,452.7 L357.9,452.9 L355.6,453.9 L353.4,455.6 L351.5,458.1 L349.6,461.4 L347.8,465.3 L346.0,469.8 L344.1,474.5 L342.1,479.3 L339.9,483.9 L337.5,488.2 L335.0,491.9 L332.2,494.9 L329.4,497.2 L326.4,498.6 L323.3,499.3 L320.2,499.2 L317.1,498.5 L314.0,497.3 L311.0,495.8 L308.0,494.0 L305.0,492.1 L302.2,490.2 L299.3,488.2 L296.6,486.3 L293.9,484.2 L291.2,482.1 L288.7,479.8 L286.2,477.4 L283.9,474.6 L281.6,471.7 L279.5,468.5 L277.6,465.1 L275.7,461.5 L274.0,457.9 L272.3,454.3 L270.2,452.8 L267.8,452.1 L265.5,451.3 L263.1,450.5 L260.8,449.7 L258.5,448.9 L256.2,448.0 L253.9,447.0 L251.6,446.1 L249.4,445.1 L247.2,444.1 L244.9,443.0 L242.7,441.9 L240.5,440.8 L238.4,439.6 L236.2,438.4 L234.1,437.1 L232.0,435.9 L229.9,434.6 L227.8,433.2 L225.8,431.9 L223.7,430.4 L221.7,429.0 L219.7,427.6 L217.8,426.1 L215.8,424.5 L213.9,423.0 L212.0,421.4 L210.2,419.8 L207.8,418.8 L202.7,420.5 L198.0,421.7 L193.7,422.3 L189.8,422.3 L186.4,421.8 L183.5,420.8 L180.9,419.3 L178.7,417.5 L176.9,415.5 L175.2,413.2 L173.8,410.8 L172.5,408.3 L171.3,405.6 L170.4,403.0 L169.5,400.2 L168.9,397.3 L168.5,394.3 L168.3,391.3 L168.4,388.1 L168.6,384.9 L169.0,381.7 L169.3,378.6 L169.7,375.5 L169.8,372.6 L169.7,369.9 L169.2,367.4 L168.2,365.1 L166.7,363.0 L164.8,361.1 L162.4,359.3 L159.6,357.6 L156.6,355.9 L153.5,354.1 L150.6,352.3 L147.8,350.3 L145.4,348.1 L143.4,345.8 L142.0,343.3 L141.0,340.7 L140.4,337.9 L140.2,335.2 L140.2,332.3 L140.2,329.5 L140.0,326.8 L139.6,324.0 L138.7,321.3 L137.5,318.7 L135.7,316.0 L133.4,313.4 L130.8,310.6 L127.9,307.8 L125.0,305.0 L122.1,302.0 L119.5,298.9 L117.3,295.8 L115.6,292.6 L114.6,289.5 L114.2,286.3 L114.5,283.1 L115.3,280.1 L116.8,277.1 L118.6,274.2 L120.9,271.4 L123.4,268.7 L126.2,266.2 L129.1,263.7 L132.1,261.3 L135.3,259.1 L138.6,257.0 L142.1,255.0 L145.7,253.1 L149.6,251.4 L153.6,249.9 L157.7,248.5 L161.8,247.2 L165.8,246.0 L168.0,244.2 L169.0,241.9 L169.9,239.6 L170.9,237.4 L171.9,235.2 L173.0,232.9 L174.1,230.7 L175.2,228.5 L176.4,226.4 L177.6,224.2 L177.5,221.3 L175.8,217.3 L174.3,213.4 L173.1,209.5 L172.3,205.7 L172.0,202.2 L172.3,199.1 L173.1,196.2 L174.4,193.7 L176.2,191.6 L178.2,189.7 L180.4,187.9 L182.7,186.2 L184.9,184.5 L187.0,182.7 L188.9,180.8 L190.7,178.7 L192.3,176.4 L193.7,173.9 L195.1,171.4 L196.6,168.8 L198.1,166.3 L199.8,164.0 L201.7,161.9 L203.9,160.0 L206.3,158.5 L208.9,157.3 L211.7,156.5 L214.7,155.8 L217.7,155.4 L220.8,155.2 L223.9,155.0 L227.0,154.8 L230.0,154.7 L233.0,154.7 L236.0,154.6 L238.9,154.7 L241.9,154.9 L245.0,155.3 L248.0,155.9 L251.2,156.8 L253.9,157.0 L256.2,156.0 L258.5,155.1 L260.8,154.3 L263.1,153.5 L265.5,152.7 L267.8,151.9 L270.2,151.2 L272.6,150.6 L275.0,149.9 L277.3,149.3 L279.8,148.8 L282.2,148.3 L284.5,147.4 L286.2,142.6 L288.0,137.6 L289.9,132.7 L292.0,128.2 L294.4,124.2 L296.9,120.9 L299.5,118.4 L302.3,116.6 L305.2,115.6 L308.1,115.2 L311.1,115.5 L314.0,116.2 Z" fill="#DD5510" fill-opacity="0.72" stroke="none"></path><g clip-path="url(#brainClip)" fill="none" stroke="white" stroke-opacity="0.3" stroke-width="1.5" stroke-linecap="round"><path d="M 172 350 C 218 330 288 316 365 318 C 428 320 468 334 492 352"></path><path d="M 258 148 C 260 190 258 238 252 278 C 248 305 244 325 240 348"></path><path d="M 298 212 C 340 208 390 212 432 224 C 462 234 480 248 490 265"></path><path d="M 170 412 C 218 392 292 380 366 382 C 428 384 466 396 488 412"></path><path d="M 428 162 C 452 198 466 238 468 278 C 470 312 462 342 452 368"></path></g><path d="M314.0,116.2 L316.9,117.3 L319.8,118.6 L322.6,119.9 L325.4,121.3 L328.1,122.7 L330.8,124.1 L333.5,125.5 L336.1,126.9 L338.7,128.5 L341.2,130.2 L343.7,132.1 L346.0,134.2 L348.3,136.5 L350.4,139.0 L352.5,141.6 L354.5,144.2 L356.5,146.7 L358.4,149.1 L360.4,151.2 L362.5,152.7 L364.9,153.5 L367.2,154.3 L369.5,155.1 L371.8,156.0 L374.1,157.0 L376.4,157.9 L378.6,158.9 L380.8,159.9 L383.1,161.0 L385.3,162.1 L387.5,163.2 L389.6,164.4 L391.8,165.6 L393.9,166.9 L396.0,168.1 L398.1,169.4 L400.2,170.8 L402.2,172.1 L404.3,173.6 L406.3,175.0 L408.3,176.4 L410.6,177.4 L415.3,175.6 L420.2,173.6 L425.3,171.7 L430.4,170.0 L435.3,168.7 L440.0,167.8 L444.3,167.5 L448.2,167.8 L451.5,168.7 L454.4,170.2 L456.8,172.1 L458.8,174.4 L460.4,177.0 L461.7,179.8 L462.8,182.8 L463.7,185.9 L464.5,189.0 L465.2,192.2 L465.8,195.3 L466.2,198.6 L466.5,201.8 L466.7,205.1 L466.6,208.5 L466.4,211.8 L466.1,215.2 L465.7,218.6 L465.3,221.9 L465.0,225.1 L464.9,228.1 L465.2,230.9 L465.9,233.4 L467.0,235.8 L468.7,237.9 L470.9,239.9 L473.6,241.7 L476.6,243.5 L479.9,245.2 L483.3,247.0 L486.6,248.9 L489.6,251.0 L492.4,253.2 L494.6,255.6 L496.4,258.2 L497.7,260.9 L498.5,263.8 L499.0,266.7 L499.3,269.7 L499.6,272.6 L500.0,275.5 L500.6,278.4 L501.6,281.3 L503.1,284.1 L505.0,287.0 L507.4,289.8 L510.1,292.8 L513.0,295.7 L516.0,298.8 L518.9,302.0 L521.5,305.3 L523.7,308.6 L525.3,312.0 L526.2,315.4 L526.5,318.7 L526.1,322.0 L525.1,325.3 L523.5,328.5 L521.4,331.5 L518.9,334.5 L516.1,337.3 L513.1,340.0 L510.0,342.6 L506.7,345.1 L503.2,347.4 L499.6,349.6 L495.8,351.7 L491.8,353.7 L487.6,355.4 L483.3,357.0 L478.9,358.5 L474.5,359.8 L470.2,361.0 L466.0,362.2 L462.2,363.4 L458.9,364.7 L457.1,366.6 L456.1,368.8 L455.0,371.1 L453.9,373.3 L452.8,375.5 L453.2,378.5 L454.3,382.1 L455.7,385.8 L457.2,389.8 L458.6,393.7 L459.7,397.7 L460.3,401.5 L460.5,405.0 L460.2,408.2 L459.3,411.1 L458.0,413.7 L456.2,416.0 L454.2,418.0 L452.0,419.9 L449.8,421.7 L447.6,423.5 L445.5,425.5 L443.7,427.6 L442.0,430.0 L440.5,432.5 L439.1,435.2 L437.8,438.0 L436.4,440.8 L435.0,443.6 L433.4,446.3 L431.5,448.7 L429.5,450.9 L427.2,452.7 L424.6,454.2 L421.9,455.5 L419.0,456.4 L416.0,457.2 L412.9,457.8 L409.8,458.4 L406.8,458.9 L403.7,459.3 L400.7,459.8 L397.7,460.1 L394.7,460.4 L391.6,460.5 L388.5,460.4 L385.4,460.1 L382.1,459.5 L378.9,458.6 L375.6,457.5 L372.3,456.2 L369.1,455.0 L366.0,453.9 L363.1,453.1 L360.4,452.7 L357.9,452.9 L355.6,453.9 L353.4,455.6 L351.5,458.1 L349.6,461.4 L347.8,465.3 L346.0,469.8 L344.1,474.5 L342.1,479.3 L339.9,483.9 L337.5,488.2 L335.0,491.9 L332.2,494.9 L329.4,497.2 L326.4,498.6 L323.3,499.3 L320.2,499.2 L317.1,498.5 L314.0,497.3 L311.0,495.8 L308.0,494.0 L305.0,492.1 L302.2,490.2 L299.3,488.2 L296.6,486.3 L293.9,484.2 L291.2,482.1 L288.7,479.8 L286.2,477.4 L283.9,474.6 L281.6,471.7 L279.5,468.5 L277.6,465.1 L275.7,461.5 L274.0,457.9 L272.3,454.3 L270.2,452.8 L267.8,452.1 L265.5,451.3 L263.1,450.5 L260.8,449.7 L258.5,448.9 L256.2,448.0 L253.9,447.0 L251.6,446.1 L249.4,445.1 L247.2,444.1 L244.9,443.0 L242.7,441.9 L240.5,440.8 L238.4,439.6 L236.2,438.4 L234.1,437.1 L232.0,435.9 L229.9,434.6 L227.8,433.2 L225.8,431.9 L223.7,430.4 L221.7,429.0 L219.7,427.6 L217.8,426.1 L215.8,424.5 L213.9,423.0 L212.0,421.4 L210.2,419.8 L207.8,418.8 L202.7,420.5 L198.0,421.7 L193.7,422.3 L189.8,422.3 L186.4,421.8 L183.5,420.8 L180.9,419.3 L178.7,417.5 L176.9,415.5 L175.2,413.2 L173.8,410.8 L172.5,408.3 L171.3,405.6 L170.4,403.0 L169.5,400.2 L168.9,397.3 L168.5,394.3 L168.3,391.3 L168.4,388.1 L168.6,384.9 L169.0,381.7 L169.3,378.6 L169.7,375.5 L169.8,372.6 L169.7,369.9 L169.2,367.4 L168.2,365.1 L166.7,363.0 L164.8,361.1 L162.4,359.3 L159.6,357.6 L156.6,355.9 L153.5,354.1 L150.6,352.3 L147.8,350.3 L145.4,348.1 L143.4,345.8 L142.0,343.3 L141.0,340.7 L140.4,337.9 L140.2,335.2 L140.2,332.3 L140.2,329.5 L140.0,326.8 L139.6,324.0 L138.7,321.3 L137.5,318.7 L135.7,316.0 L133.4,313.4 L130.8,310.6 L127.9,307.8 L125.0,305.0 L122.1,302.0 L119.5,298.9 L117.3,295.8 L115.6,292.6 L114.6,289.5 L114.2,286.3 L114.5,283.1 L115.3,280.1 L116.8,277.1 L118.6,274.2 L120.9,271.4 L123.4,268.7 L126.2,266.2 L129.1,263.7 L132.1,261.3 L135.3,259.1 L138.6,257.0 L142.1,255.0 L145.7,253.1 L149.6,251.4 L153.6,249.9 L157.7,248.5 L161.8,247.2 L165.8,246.0 L168.0,244.2 L169.0,241.9 L169.9,239.6 L170.9,237.4 L171.9,235.2 L173.0,232.9 L174.1,230.7 L175.2,228.5 L176.4,226.4 L177.6,224.2 L177.5,221.3 L175.8,217.3 L174.3,213.4 L173.1,209.5 L172.3,205.7 L172.0,202.2 L172.3,199.1 L173.1,196.2 L174.4,193.7 L176.2,191.6 L178.2,189.7 L180.4,187.9 L182.7,186.2 L184.9,184.5 L187.0,182.7 L188.9,180.8 L190.7,178.7 L192.3,176.4 L193.7,173.9 L195.1,171.4 L196.6,168.8 L198.1,166.3 L199.8,164.0 L201.7,161.9 L203.9,160.0 L206.3,158.5 L208.9,157.3 L211.7,156.5 L214.7,155.8 L217.7,155.4 L220.8,155.2 L223.9,155.0 L227.0,154.8 L230.0,154.7 L233.0,154.7 L236.0,154.6 L238.9,154.7 L241.9,154.9 L245.0,155.3 L248.0,155.9 L251.2,156.8 L253.9,157.0 L256.2,156.0 L258.5,155.1 L260.8,154.3 L263.1,153.5 L265.5,152.7 L267.8,151.9 L270.2,151.2 L272.6,150.6 L275.0,149.9 L277.3,149.3 L279.8,148.8 L282.2,148.3 L284.5,147.4 L286.2,142.6 L288.0,137.6 L289.9,132.7 L292.0,128.2 L294.4,124.2 L296.9,120.9 L299.5,118.4 L302.3,116.6 L305.2,115.6 L308.1,115.2 L311.1,115.5 L314.0,116.2 Z" fill="none" stroke="#5D1F08" stroke-width="1.8"></path><g clip-path="url(#brainClip)"><path d="M341.9,310.0 L342.2,311.7 L342.1,313.4 L341.5,315.0 L340.6,316.5 L339.4,317.9 L338.0,319.1 L336.5,320.2 L335.2,321.2 L333.9,322.2 L332.9,323.2 L332.2,324.4 L331.6,325.7 L331.3,327.2 L331.1,329.0 L330.9,330.9 L330.6,332.9 L330.2,334.9 L329.5,336.8 L328.5,338.5 L327.3,340.0 L325.8,341.0 L324.1,341.7 L322.3,341.9 L320.3,341.8 L318.4,341.3 L316.5,340.6 L314.7,339.8 L313.0,338.9 L311.5,338.0 L310.0,337.2 L308.6,336.5 L307.3,335.9 L306.0,335.4 L304.7,335.0 L303.4,334.7 L302.1,334.4 L300.7,334.2 L299.4,333.9 L298.0,333.6 L296.6,333.3 L295.1,333.0 L293.6,332.6 L292.0,332.2 L290.4,331.8 L288.7,331.3 L287.0,330.8 L285.3,330.0 L283.6,329.2 L282.2,328.1 L280.9,326.8 L279.9,325.3 L279.2,323.7 L278.9,321.9 L279.0,320.1 L279.3,318.2 L279.9,316.4 L280.6,314.7 L281.4,313.0 L282.2,311.5 L282.7,310.0 L283.1,308.6 L283.2,307.2 L283.0,305.7 L282.7,304.2 L282.2,302.6 L281.7,300.8 L281.3,299.0 L281.1,297.1 L281.2,295.3 L281.6,293.6 L282.5,292.1 L283.7,290.9 L285.3,290.0 L287.1,289.4 L289.0,289.0 L291.0,288.9 L292.9,288.9 L294.7,288.9 L296.3,288.9 L297.7,288.7 L298.9,288.3 L300.0,287.6 L301.0,286.7 L302.0,285.5 L303.1,284.2 L304.2,282.7 L305.5,281.3 L306.8,280.0 L308.4,278.9 L310.0,278.0 L311.7,277.4 L313.5,277.0 L315.2,276.9 L317.0,277.1 L318.7,277.5 L320.4,278.1 L321.9,278.9 L323.4,279.8 L324.9,280.8 L326.2,282.0 L327.3,283.3 L328.4,284.7 L329.3,286.2 L330.0,287.8 L330.5,289.5 L330.9,291.1 L331.3,292.8 L331.5,294.4 L331.8,295.8 L332.2,297.2 L332.6,298.5 L333.3,299.6 L334.2,300.7 L335.3,301.8 L336.5,302.9 L337.8,304.1 L339.1,305.4 L340.3,306.8 L341.3,308.4 Z" fill="none" stroke="white" stroke-opacity="0.27" stroke-width="0.95"></path><path d="M368.2,310.0 L367.1,313.0 L365.9,315.9 L364.5,318.6 L363.2,321.3 L361.9,323.9 L360.8,326.5 L360.0,329.2 L359.3,331.9 L358.8,334.9 L358.4,337.9 L358.1,341.2 L357.6,344.6 L357.0,348.1 L356.1,351.5 L354.8,354.8 L353.1,357.9 L350.9,360.5 L348.3,362.7 L345.4,364.5 L342.2,365.7 L338.8,366.5 L335.3,366.8 L331.8,366.9 L328.4,366.7 L325.1,366.5 L322.0,366.3 L318.9,366.3 L315.9,366.3 L313.0,366.5 L310.0,366.9 L307.0,367.3 L303.9,367.6 L300.8,367.8 L297.7,367.9 L294.6,367.6 L291.5,367.1 L288.4,366.2 L285.5,365.0 L282.7,363.5 L280.1,361.7 L277.7,359.8 L275.3,357.7 L273.1,355.5 L271.0,353.3 L269.0,351.0 L267.1,348.6 L265.3,346.2 L263.5,343.8 L261.9,341.3 L260.4,338.7 L259.0,336.0 L257.7,333.3 L256.5,330.5 L255.5,327.7 L254.5,324.9 L253.6,322.0 L252.6,319.1 L251.7,316.1 L250.7,313.1 L249.8,310.0 L248.9,306.8 L248.1,303.5 L247.6,300.1 L247.4,296.7 L247.6,293.3 L248.2,289.9 L249.4,286.7 L251.1,283.8 L253.3,281.1 L255.9,278.7 L258.8,276.7 L261.9,275.0 L265.0,273.6 L268.1,272.3 L271.1,271.1 L273.9,269.9 L276.4,268.5 L278.7,267.0 L280.9,265.2 L283.0,263.2 L285.0,261.0 L287.1,258.7 L289.4,256.3 L291.8,254.1 L294.5,252.2 L297.4,250.5 L300.4,249.3 L303.5,248.6 L306.8,248.3 L310.0,248.5 L313.2,249.0 L316.3,249.9 L319.4,250.9 L322.3,252.1 L325.2,253.3 L328.0,254.5 L330.9,255.7 L333.7,256.8 L336.5,258.0 L339.3,259.2 L342.1,260.5 L344.9,261.9 L347.6,263.5 L350.3,265.3 L352.7,267.3 L355.1,269.4 L357.3,271.7 L359.3,274.2 L361.2,276.8 L362.9,279.5 L364.5,282.3 L365.9,285.1 L367.1,288.1 L368.1,291.1 L368.9,294.2 L369.4,297.4 L369.6,300.6 L369.4,303.8 L368.9,306.9 Z" fill="none" stroke="white" stroke-opacity="0.27" stroke-width="0.95"></path><path d="M396.7,310.0 L396.2,314.5 L395.5,319.0 L394.8,323.4 L394.0,327.9 L393.2,332.3 L392.3,336.7 L391.3,341.2 L390.2,345.7 L388.9,350.2 L387.3,354.6 L385.4,359.0 L383.1,363.1 L380.5,367.1 L377.4,370.7 L373.9,373.9 L370.1,376.8 L366.1,379.3 L361.9,381.4 L357.6,383.3 L353.3,384.9 L349.0,386.5 L344.8,388.1 L340.6,389.7 L336.5,391.5 L332.3,393.4 L328.2,395.4 L323.9,397.5 L319.4,399.4 L314.8,401.2 L310.0,402.6 L305.1,403.5 L300.1,403.9 L295.2,403.6 L290.3,402.6 L285.6,401.0 L281.1,398.8 L276.9,396.1 L273.0,393.1 L269.4,389.8 L265.9,386.3 L262.7,382.9 L259.6,379.4 L256.5,376.1 L253.5,372.8 L250.4,369.6 L247.4,366.4 L244.4,363.1 L241.4,359.9 L238.5,356.5 L235.7,352.9 L233.0,349.2 L230.6,345.4 L228.3,341.4 L226.3,337.2 L224.5,332.9 L222.9,328.5 L221.6,324.0 L220.5,319.4 L219.6,314.7 L219.1,310.0 L218.8,305.2 L218.9,300.4 L219.4,295.6 L220.3,290.9 L221.6,286.3 L223.4,281.9 L225.5,277.6 L227.9,273.5 L230.6,269.6 L233.5,265.8 L236.5,262.2 L239.5,258.8 L242.4,255.3 L245.4,251.8 L248.3,248.3 L251.3,244.8 L254.3,241.3 L257.5,237.7 L260.9,234.3 L264.5,231.1 L268.3,228.3 L272.5,225.8 L277.0,223.9 L281.6,222.6 L286.4,221.9 L291.2,221.7 L296.1,222.0 L300.8,222.8 L305.5,223.8 L310.0,225.0 L314.4,226.2 L318.7,227.2 L323.0,228.2 L327.2,228.9 L331.6,229.5 L336.0,229.9 L340.6,230.3 L345.2,230.8 L350.0,231.5 L354.7,232.5 L359.4,233.9 L363.9,235.8 L368.3,238.0 L372.3,240.8 L376.0,244.0 L379.4,247.5 L382.4,251.4 L385.1,255.5 L387.4,259.7 L389.5,264.1 L391.3,268.6 L392.8,273.1 L394.1,277.7 L395.2,282.3 L396.0,286.9 L396.6,291.6 L397.0,296.2 L397.1,300.8 L397.0,305.4 Z" fill="none" stroke="white" stroke-opacity="0.27" stroke-width="0.95"></path><path d="M431.5,310.0 L431.3,316.4 L430.7,322.7 L429.7,329.0 L428.2,335.1 L426.4,341.2 L424.2,347.1 L421.8,352.9 L418.9,358.5 L415.8,363.9 L412.3,369.1 L408.6,374.0 L404.5,378.7 L400.2,383.0 L395.7,387.1 L391.0,391.0 L386.2,394.7 L381.4,398.2 L376.6,401.6 L371.7,405.0 L366.8,408.4 L361.9,411.8 L356.9,415.3 L351.7,418.7 L346.4,422.1 L340.9,425.3 L335.1,428.1 L329.1,430.5 L322.9,432.4 L316.5,433.6 L310.0,434.0 L303.5,433.7 L297.1,432.7 L290.8,430.9 L284.8,428.7 L278.9,426.0 L273.3,423.0 L267.9,419.8 L262.6,416.5 L257.4,413.3 L252.2,410.1 L247.0,407.0 L241.8,403.8 L236.6,400.6 L231.5,397.2 L226.4,393.6 L221.6,389.6 L217.0,385.3 L212.7,380.7 L208.9,375.6 L205.6,370.3 L202.8,364.6 L200.5,358.7 L198.7,352.7 L197.4,346.6 L196.3,340.5 L195.6,334.3 L195.1,328.2 L194.8,322.1 L194.7,316.0 L194.7,310.0 L194.8,304.0 L195.2,297.9 L195.8,291.9 L196.6,285.9 L197.7,279.9 L199.0,273.9 L200.7,268.0 L202.6,262.2 L204.8,256.4 L207.3,250.7 L210.0,245.0 L212.9,239.5 L216.2,234.0 L219.7,228.7 L223.6,223.6 L227.8,218.7 L232.4,214.2 L237.4,210.0 L242.7,206.4 L248.4,203.3 L254.4,200.8 L260.6,199.0 L266.9,197.7 L273.2,196.9 L279.6,196.5 L285.9,196.5 L292.0,196.7 L298.1,196.9 L304.1,197.1 L310.0,197.2 L315.9,197.2 L321.9,197.2 L327.9,197.1 L334.0,197.0 L340.2,197.2 L346.5,197.8 L352.7,198.7 L358.9,200.2 L364.9,202.3 L370.6,205.1 L376.0,208.4 L381.0,212.2 L385.7,216.6 L389.9,221.2 L393.9,226.1 L397.5,231.2 L401.0,236.3 L404.3,241.5 L407.5,246.7 L410.7,251.9 L413.8,257.1 L416.9,262.4 L419.8,267.8 L422.6,273.4 L425.1,279.2 L427.2,285.1 L429.0,291.2 L430.3,297.4 L431.1,303.7 Z" fill="none" stroke="white" stroke-opacity="0.27" stroke-width="0.95"></path><path d="M462.1,310.0 L461.2,317.9 L459.7,325.7 L457.9,333.4 L455.8,341.0 L453.3,348.4 L450.6,355.7 L447.7,362.9 L444.5,369.9 L441.0,376.7 L437.2,383.4 L433.1,389.9 L428.6,396.2 L423.9,402.2 L418.9,408.0 L413.5,413.5 L408.0,418.8 L402.2,423.9 L396.2,428.7 L390.0,433.3 L383.6,437.6 L377.0,441.6 L370.2,445.3 L363.2,448.6 L356.0,451.5 L348.5,453.8 L341.0,455.6 L333.3,456.8 L325.5,457.5 L317.7,457.5 L310.0,457.0 L302.3,456.1 L294.8,454.8 L287.3,453.3 L279.9,451.5 L272.6,449.7 L265.2,447.8 L257.8,445.9 L250.4,443.8 L243.0,441.6 L235.5,439.1 L228.1,436.2 L220.8,432.8 L213.7,428.9 L207.1,424.3 L200.9,419.1 L195.3,413.3 L190.4,406.9 L186.1,400.0 L182.5,392.8 L179.6,385.3 L177.2,377.6 L175.3,370.0 L173.7,362.3 L172.4,354.7 L171.1,347.2 L170.0,339.8 L168.9,332.4 L167.8,324.9 L166.9,317.5 L166.1,310.0 L165.6,302.4 L165.4,294.8 L165.6,287.1 L166.2,279.4 L167.4,271.8 L169.1,264.2 L171.3,256.8 L174.1,249.5 L177.2,242.4 L180.8,235.4 L184.8,228.7 L189.2,222.2 L193.8,215.9 L198.9,209.9 L204.2,204.2 L209.9,198.9 L215.9,193.8 L222.2,189.2 L228.8,185.0 L235.6,181.2 L242.7,177.8 L249.8,174.9 L257.1,172.3 L264.5,170.0 L271.9,167.9 L279.4,166.1 L287.0,164.5 L294.6,163.1 L302.2,161.9 L310.0,161.0 L317.8,160.5 L325.7,160.4 L333.6,160.9 L341.5,162.0 L349.2,163.8 L356.7,166.3 L363.9,169.5 L370.8,173.4 L377.3,177.8 L383.5,182.7 L389.3,187.9 L394.8,193.4 L400.0,198.8 L405.1,204.4 L410.2,209.8 L415.3,215.2 L420.4,220.6 L425.6,226.0 L430.8,231.6 L436.0,237.3 L441.0,243.3 L445.7,249.6 L450.1,256.2 L453.9,263.3 L457.0,270.6 L459.5,278.2 L461.2,286.0 L462.2,294.0 L462.5,302.0 Z" fill="none" stroke="white" stroke-opacity="0.27" stroke-width="0.95"></path><line x1="310" y1="310" x2="310" y2="162" stroke="white" stroke-opacity="0.22" stroke-width="0.7"></line><line x1="310" y1="310" x2="414.651803615609" y2="205.34819638439097" stroke="white" stroke-opacity="0.22" stroke-width="0.7"></line><line x1="310" y1="310" x2="458" y2="310" stroke="white" stroke-opacity="0.22" stroke-width="0.7"></line><line x1="310" y1="310" x2="414.651803615609" y2="414.651803615609" stroke="white" stroke-opacity="0.22" stroke-width="0.7"></line><line x1="310" y1="310" x2="310" y2="458" stroke="white" stroke-opacity="0.22" stroke-width="0.7"></line><line x1="310" y1="310" x2="205.34819638439097" y2="414.651803615609" stroke="white" stroke-opacity="0.22" stroke-width="0.7"></line><line x1="310" y1="310" x2="162" y2="310" stroke="white" stroke-opacity="0.22" stroke-width="0.7"></line><line x1="310" y1="310" x2="205.34819638439095" y2="205.34819638439097" stroke="white" stroke-opacity="0.22" stroke-width="0.7"></line></g><g clip-path="url(#brainClip)"><path d="M310.0,236.0 L310.0,310.0 L384.0,310.0 L362.3,362.3 L310.0,310.0 L257.7,362.3 L236.0,310.0 L310.0,310.0 Z" fill="#8C78E0" fill-opacity="0.72" filter="url(#blobBlur)"></path><path d="M310.0,236.0 L310.0,310.0 L384.0,310.0 L414.7,414.7 L310.0,310.0 L205.3,414.7 L162.0,310.0 L310.0,310.0 Z" fill="#3B1D7F" fill-opacity="0.72" filter="url(#blobBlur)"></path></g><path d="M310.0,236.0 L310.0,310.0 L384.0,310.0 L414.7,414.7 L310.0,310.0 L205.3,414.7 L162.0,310.0 L310.0,310.0 Z" clip-path="url(#brainClip)" fill="#6E55D6" fill-opacity="0.55" stroke="#5341BC" stroke-width="5" stroke-opacity="0.9"></path><circle cx="310" cy="310" r="74" fill="none" stroke="#A53807" stroke-opacity="0.92" stroke-width="2.6" stroke-dasharray="5 4"></circle><circle cx="310" cy="310" r="148" fill="none" stroke="#A53807" stroke-opacity="0.85" stroke-width="2.3" stroke-dasharray="5 4"></circle><g><rect x="313" y="226" width="20" height="20" rx="4" fill="rgba(0,0,0,0.38)"></rect><text x="323" y="236" text-anchor="middle" dominant-baseline="middle" font-size="16" font-weight="800" fill="white">1</text></g><g><rect x="313" y="152" width="20" height="20" rx="4" fill="rgba(0,0,0,0.38)"></rect><text x="323" y="162" text-anchor="middle" dominant-baseline="middle" font-size="16" font-weight="800" fill="white">2</text></g><path d="M310.0,225.0 L311.4,234.6 L321.0,236.0 L311.4,237.4 L310.0,247.0 L308.6,237.4 L299.0,236.0 L308.6,234.6 Z" fill="#8C78E0" stroke="white" stroke-width="1.6" stroke-opacity="0.9" opacity="1"></path><path d="M384.0,299.0 L385.4,308.6 L395.0,310.0 L385.4,311.4 L384.0,321.0 L382.6,311.4 L373.0,310.0 L382.6,308.6 Z" fill="#8C78E0" stroke="white" stroke-width="1.6" stroke-opacity="0.9" opacity="1"></path><path d="M414.7,403.7 L416.1,413.3 L425.7,414.7 L416.1,416.1 L414.7,425.7 L413.3,416.1 L403.7,414.7 L413.3,413.3 Z" fill="#3B1D7F" stroke="white" stroke-width="1.6" stroke-opacity="0.9" opacity="1"></path><path d="M205.3,403.7 L206.7,413.3 L216.3,414.7 L206.7,416.1 L205.3,425.7 L203.9,416.1 L194.3,414.7 L203.9,413.3 Z" fill="#3B1D7F" stroke="white" stroke-width="1.6" stroke-opacity="0.9" opacity="1"></path><path d="M162.0,299.0 L163.4,308.6 L173.0,310.0 L163.4,311.4 L162.0,321.0 L160.6,311.4 L151.0,310.0 L160.6,308.6 Z" fill="#3B1D7F" stroke="white" stroke-width="1.6" stroke-opacity="0.9" opacity="1"></path><g><text x="310" y="95" text-anchor="middle" dominant-baseline="middle" font-size="16.5" font-weight="600" fill="#E11D48">Conceptualization</text></g><g><text x="462.0279579551077" y="157.9720420448923" text-anchor="start" dominant-baseline="middle" font-size="16.5" font-weight="600" fill="#B45309">Investigation</text></g><g><text x="525" y="310" text-anchor="start" dominant-baseline="middle" font-size="16.5" font-weight="600" fill="#2563EB">Methodology</text></g><g><text x="462.0279579551077" y="462.0279579551077" text-anchor="start" dominant-baseline="middle" font-size="16.5" font-weight="600" fill="#4D7C0F">Software</text></g><g><text x="310" y="525" text-anchor="middle" dominant-baseline="middle" font-size="16.5" font-weight="600" fill="#047857">Validation</text></g><g><text x="157.9720420448923" y="462.0279579551077" text-anchor="end" dominant-baseline="middle" font-size="16.5" font-weight="600" fill="#A21CAF">Visualization</text></g><g><text x="95" y="302.5" text-anchor="end" dominant-baseline="middle" font-size="16.5" font-weight="600" fill="#0F766E">Writing</text><text x="95" y="317.5" text-anchor="end" dominant-baseline="middle" font-size="16.5" font-weight="600" fill="#0F766E">(orig. draft)</text></g><g><text x="157.97204204489225" y="150.4720420448923" text-anchor="end" dominant-baseline="middle" font-size="16.5" font-weight="600" fill="#BE185D">Writing</text><text x="157.97204204489225" y="165.4720420448923" text-anchor="end" dominant-baseline="middle" font-size="16.5" font-weight="600" fill="#BE185D">(rev. &amp; editing)</text></g></svg><line x1="10" y1="527" x2="510" y2="527" stroke="#E2E8F0" stroke-width="0.8"/><text x="260" y="545" text-anchor="middle" font-family="'Montserrat','Segoe UI',Arial,sans-serif" font-size="12.5" fill="#64748B">AI interaction across specified roles · 0 = no AI · 1 = some · 2 = extensive</text><text x="260" y="565" text-anchor="middle" font-family="'Montserrat','Segoe UI',Arial,sans-serif" font-size="12.5" fill="#334155">5 roles with AI interaction · average extent 1.6/2</text><rect x="110" y="581" width="22" height="16" fill="#DD5510" opacity="0.72" rx="2"/><text x="140" y="594" font-family="'Montserrat','Segoe UI',Arial,sans-serif" font-size="14" font-weight="600" fill="#334155">Outer ring = Human</text><rect x="298" y="581" width="22" height="16" fill="#6E55D6" opacity="0.72" rx="2"/><text x="328" y="594" font-family="'Montserrat','Segoe UI',Arial,sans-serif" font-size="14" font-weight="600" fill="#334155">Centre = AI</text><text x="260" y="616" text-anchor="middle" font-family="'Montserrat','Segoe UI',Arial,sans-serif" font-size="12" font-style="italic" fill="#475569">Each axis = one contributor role</text><line x1="10" y1="621" x2="510" y2="621" stroke="#E2E8F0" stroke-width="0.8"/><text x="260" y="635" text-anchor="middle" font-family="'Montserrat','Segoe UI',Arial,sans-serif" font-size="11" fill="#334155" font-style="italic">After using any tools or services, the author(s) reviewed and edited</text><text x="260" y="651" text-anchor="middle" font-family="'Montserrat','Segoe UI',Arial,sans-serif" font-size="11" fill="#334155" font-style="italic">the content as needed and take(s) full responsibility for the content of the publication.</text><text x="260" y="677" text-anchor="middle" font-family="'Montserrat','Segoe UI',Arial,sans-serif" font-size="10" fill="#64748B">Contributor roles are based on the Contributor Role Taxonomy (CRediT).</text><text x="260" y="691" text-anchor="middle" font-family="'Montserrat','Segoe UI',Arial,sans-serif" font-size="10" fill="#64748B">More info at <tspan font-weight="600" fill="#2451CB">https://credit.niso.org</tspan></text></g>
  <line x1="522" y1="0" x2="522" y2="835" stroke="#CBD5E1" stroke-width="1"/>
  <g transform="translate(526,0)"><rect width="774" height="835" fill="#F8FAFC"/><rect width="774" height="56" fill="#111111"/><text x="14" y="24" font-family="'Montserrat','Segoe UI',Arial,sans-serif" font-size="13.5" font-weight="700" fill="white">Statement of Intellectual Fellowship and Accountability (sIfA)</text><text x="14" y="44" font-family="'Montserrat','Segoe UI',Arial,sans-serif" font-size="11" fill="rgba(255,255,255,0.72)">AI interaction across specified contributor roles</text><rect y="56" width="774" height="50" fill="#1A1A1A"/><text x="8" y="85" font-family="'Montserrat','Segoe UI',Arial,sans-serif" font-size="11.5" font-weight="700" fill="white">CRediT Role</text><text x="138" y="85" font-family="'Montserrat','Segoe UI',Arial,sans-serif" font-size="11.5" font-weight="700" fill="white">Performed by</text><text x="298" y="85" font-family="'Montserrat','Segoe UI',Arial,sans-serif" font-size="11.5" font-weight="700" fill="white">Extent of AI Use</text><text x="398" y="78" font-family="'Montserrat','Segoe UI',Arial,sans-serif" font-size="11.5" font-weight="700" fill="white">How was AI used?</text><text x="398" y="92" font-family="'Montserrat','Segoe UI',Arial,sans-serif" font-size="11.5" font-weight="700" fill="white">Audit trail?</text><text x="558" y="85" font-family="'Montserrat','Segoe UI',Arial,sans-serif" font-size="11.5" font-weight="700" fill="white">Tool / Service</text><rect y="106" width="774" height="57" fill="#EFF6FF"/><rect x="0" y="106" width="4" height="57" fill="#E11D48"/><text x="10" y="138.5" font-family="'Montserrat','Segoe UI',Arial,sans-serif" font-size="11.5" font-weight="600" fill="#E11D48">Conceptualization</text><text x="136" y="123" font-family="'Montserrat','Segoe UI',Arial,sans-serif" font-size="11.5" fill="#334155">Mareike Schomerus</text><text x="136" y="137" font-family="'Montserrat','Segoe UI',Arial,sans-serif" font-size="10" font-style="italic" fill="#64748B">Sole</text><rect x="296.0" y="130.5" width="9" height="9" rx="1.5" fill="#8C78E0" fill-opacity="1.00"/><rect x="308.0" y="130.5" width="9" height="9" rx="1.5" fill="#E2E8F0" fill-opacity="1"/><text x="396" y="123" font-family="'Montserrat','Segoe UI',Arial,sans-serif" font-size="11" fill="#334155">To sharpen and stress test</text><text x="396" y="136" font-family="'Montserrat','Segoe UI',Arial,sans-serif" font-size="11" fill="#334155">the conceptual ideas behind</text><text x="396" y="149" font-family="'Montserrat','Segoe UI',Arial,sans-serif" font-size="11" fill="#334155">sIfA</text><text x="556" y="123" font-family="'Montserrat','Segoe UI',Arial,sans-serif" font-size="11.5" fill="#334155">Claude Sonnet 4.7</text><rect y="163" width="774" height="46" fill="#EFF6FF"/><line x1="0" y1="163" x2="774" y2="163" stroke="#E2E8F0" stroke-width="0.7"/><rect x="0" y="163" width="4" height="46" fill="#B45309"/><text x="10" y="190" font-family="'Montserrat','Segoe UI',Arial,sans-serif" font-size="11.5" font-weight="600" fill="#B45309">Investigation</text><text x="136" y="180" font-family="'Montserrat','Segoe UI',Arial,sans-serif" font-size="11.5" fill="#334155">Mareike Schomerus</text><text x="136" y="194" font-family="'Montserrat','Segoe UI',Arial,sans-serif" font-size="10" font-style="italic" fill="#64748B">Sole</text><rect x="296.0" y="182" width="9" height="9" rx="1.5" fill="#E2E8F0" fill-opacity="1"/><rect x="308.0" y="182" width="9" height="9" rx="1.5" fill="#E2E8F0" fill-opacity="1"/><rect y="209" width="774" height="46" fill="#EFF6FF"/><line x1="0" y1="209" x2="774" y2="209" stroke="#E2E8F0" stroke-width="0.7"/><rect x="0" y="209" width="4" height="46" fill="#2563EB"/><text x="10" y="236" font-family="'Montserrat','Segoe UI',Arial,sans-serif" font-size="11.5" font-weight="600" fill="#2563EB">Methodology</text><text x="136" y="226" font-family="'Montserrat','Segoe UI',Arial,sans-serif" font-size="11.5" fill="#334155">Mareike Schomerus</text><text x="136" y="240" font-family="'Montserrat','Segoe UI',Arial,sans-serif" font-size="10" font-style="italic" fill="#64748B">Sole</text><rect x="296.0" y="228" width="9" height="9" rx="1.5" fill="#8C78E0" fill-opacity="1.00"/><rect x="308.0" y="228" width="9" height="9" rx="1.5" fill="#E2E8F0" fill-opacity="1"/><text x="396" y="226" font-family="'Montserrat','Segoe UI',Arial,sans-serif" font-size="11" fill="#334155">To get feedback on ideas and</text><text x="396" y="239" font-family="'Montserrat','Segoe UI',Arial,sans-serif" font-size="11" fill="#334155">feasibility</text><text x="556" y="226" font-family="'Montserrat','Segoe UI',Arial,sans-serif" font-size="11.5" fill="#334155">Claude Sonnet 4.6 and Opus 4.7</text><rect y="255" width="774" height="187" fill="#EFF6FF"/><line x1="0" y1="255" x2="774" y2="255" stroke="#E2E8F0" stroke-width="0.7"/><rect x="0" y="255" width="4" height="187" fill="#4D7C0F"/><text x="10" y="352.5" font-family="'Montserrat','Segoe UI',Arial,sans-serif" font-size="11.5" font-weight="600" fill="#4D7C0F">Software</text><text x="136" y="272" font-family="'Montserrat','Segoe UI',Arial,sans-serif" font-size="11.5" fill="#334155">Mareike Schomerus</text><text x="136" y="286" font-family="'Montserrat','Segoe UI',Arial,sans-serif" font-size="10" font-style="italic" fill="#64748B">Sole</text><rect x="296.0" y="344.5" width="9" height="9" rx="1.5" fill="#8C78E0" fill-opacity="1.00"/><rect x="308.0" y="344.5" width="9" height="9" rx="1.5" fill="#3B1D7F" fill-opacity="1.00"/><text x="396" y="272" font-family="'Montserrat','Segoe UI',Arial,sans-serif" font-size="11" fill="#334155">For all vibe coding; a more</text><text x="396" y="285" font-family="'Montserrat','Segoe UI',Arial,sans-serif" font-size="11" fill="#334155">detailed description is in</text><text x="396" y="298" font-family="'Montserrat','Segoe UI',Arial,sans-serif" font-size="11" fill="#334155">Saleh, Engy, and Mareike</text><text x="396" y="311" font-family="'Montserrat','Segoe UI',Arial,sans-serif" font-size="11" fill="#334155">Schomerus. 2026. The sIfA</text><text x="396" y="324" font-family="'Montserrat','Segoe UI',Arial,sans-serif" font-size="11" fill="#334155">tool for a Statement of</text><text x="396" y="337" font-family="'Montserrat','Segoe UI',Arial,sans-serif" font-size="11" fill="#334155">Intellectual Fellowship and</text><text x="396" y="350" font-family="'Montserrat','Segoe UI',Arial,sans-serif" font-size="11" fill="#334155">Accountability: An</text><text x="396" y="363" font-family="'Montserrat','Segoe UI',Arial,sans-serif" font-size="11" fill="#334155">invitation to reflect on how</text><text x="396" y="376" font-family="'Montserrat','Segoe UI',Arial,sans-serif" font-size="11" fill="#334155">humans and AI interact in</text><text x="396" y="389" font-family="'Montserrat','Segoe UI',Arial,sans-serif" font-size="11" fill="#334155">producing knowledge</text><text x="396" y="402" font-family="'Montserrat','Segoe UI',Arial,sans-serif" font-size="11" fill="#334155">(Groundwork 32 Thought</text><text x="396" y="415" font-family="'Montserrat','Segoe UI',Arial,sans-serif" font-size="11" fill="#334155">Piece). Nairobi: Busara.</text><text x="396" y="428" font-family="'Montserrat','Segoe UI',Arial,sans-serif" font-size="11" fill="#334155">doi: 10.62372/IUPB2137</text><text x="556" y="272" font-family="'Montserrat','Segoe UI',Arial,sans-serif" font-size="11.5" fill="#334155">Claude Sonnet 4.6 and Opus 4.7</text><rect y="442" width="774" height="46" fill="#EFF6FF"/><line x1="0" y1="442" x2="774" y2="442" stroke="#E2E8F0" stroke-width="0.7"/><rect x="0" y="442" width="4" height="46" fill="#047857"/><text x="10" y="469" font-family="'Montserrat','Segoe UI',Arial,sans-serif" font-size="11.5" font-weight="600" fill="#047857">Validation</text><text x="136" y="459" font-family="'Montserrat','Segoe UI',Arial,sans-serif" font-size="11.5" fill="#334155">Mareike Schomerus</text><text x="136" y="473" font-family="'Montserrat','Segoe UI',Arial,sans-serif" font-size="10" font-style="italic" fill="#64748B">Sole</text><rect x="296.0" y="461" width="9" height="9" rx="1.5" fill="#E2E8F0" fill-opacity="1"/><rect x="308.0" y="461" width="9" height="9" rx="1.5" fill="#E2E8F0" fill-opacity="1"/><text x="556" y="459" font-family="'Montserrat','Segoe UI',Arial,sans-serif" font-size="11.5" fill="#334155">Claude Sonnet 4.6 and Opus 4.7</text><rect y="488" width="774" height="46" fill="#EFF6FF"/><line x1="0" y1="488" x2="774" y2="488" stroke="#E2E8F0" stroke-width="0.7"/><rect x="0" y="488" width="4" height="46" fill="#A21CAF"/><text x="10" y="515" font-family="'Montserrat','Segoe UI',Arial,sans-serif" font-size="11.5" font-weight="600" fill="#A21CAF">Visualization</text><text x="136" y="505" font-family="'Montserrat','Segoe UI',Arial,sans-serif" font-size="11.5" fill="#334155">Mareike Schomerus</text><text x="136" y="519" font-family="'Montserrat','Segoe UI',Arial,sans-serif" font-size="10" font-style="italic" fill="#64748B">Sole</text><rect x="296.0" y="507" width="9" height="9" rx="1.5" fill="#8C78E0" fill-opacity="1.00"/><rect x="308.0" y="507" width="9" height="9" rx="1.5" fill="#3B1D7F" fill-opacity="1.00"/><text x="396" y="505" font-family="'Montserrat','Segoe UI',Arial,sans-serif" font-size="11" fill="#334155">To turn all visual ideas</text><text x="396" y="518" font-family="'Montserrat','Segoe UI',Arial,sans-serif" font-size="11" fill="#334155">into actual visuals</text><rect y="534" width="774" height="83" fill="#EFF6FF"/><line x1="0" y1="534" x2="774" y2="534" stroke="#E2E8F0" stroke-width="0.7"/><rect x="0" y="534" width="4" height="83" fill="#0F766E"/><text x="10" y="571.5" font-family="'Montserrat','Segoe UI',Arial,sans-serif" font-size="11.5" font-weight="600" fill="#0F766E">Writing –</text><text x="10" y="587.5" font-family="'Montserrat','Segoe UI',Arial,sans-serif" font-size="11.5" font-weight="600" fill="#0F766E">original draft</text><text x="136" y="551" font-family="'Montserrat','Segoe UI',Arial,sans-serif" font-size="11.5" fill="#334155">Mareike Schomerus</text><text x="136" y="565" font-family="'Montserrat','Segoe UI',Arial,sans-serif" font-size="10" font-style="italic" fill="#64748B">Sole</text><rect x="296.0" y="571.5" width="9" height="9" rx="1.5" fill="#8C78E0" fill-opacity="1.00"/><rect x="308.0" y="571.5" width="9" height="9" rx="1.5" fill="#3B1D7F" fill-opacity="1.00"/><text x="396" y="551" font-family="'Montserrat','Segoe UI',Arial,sans-serif" font-size="11" fill="#334155">All software documentation</text><text x="396" y="564" font-family="'Montserrat','Segoe UI',Arial,sans-serif" font-size="11" fill="#334155">was drafted by AI. AI also</text><text x="396" y="577" font-family="'Montserrat','Segoe UI',Arial,sans-serif" font-size="11" fill="#334155">worded the author questions.</text><text x="396" y="590" font-family="'Montserrat','Segoe UI',Arial,sans-serif" font-size="11" fill="#334155">Introductory text entirely</text><text x="396" y="603" font-family="'Montserrat','Segoe UI',Arial,sans-serif" font-size="11" fill="#334155">human</text><text x="556" y="551" font-family="'Montserrat','Segoe UI',Arial,sans-serif" font-size="11.5" fill="#334155">Claude Opus 4.7</text><rect y="617" width="774" height="48" fill="#EFF6FF"/><line x1="0" y1="617" x2="774" y2="617" stroke="#E2E8F0" stroke-width="0.7"/><rect x="0" y="617" width="4" height="48" fill="#BE185D"/><text x="10" y="637" font-family="'Montserrat','Segoe UI',Arial,sans-serif" font-size="11.5" font-weight="600" fill="#BE185D">Writing –</text><text x="10" y="653" font-family="'Montserrat','Segoe UI',Arial,sans-serif" font-size="11.5" font-weight="600" fill="#BE185D">review &amp; editing</text><text x="136" y="634" font-family="'Montserrat','Segoe UI',Arial,sans-serif" font-size="11.5" fill="#334155">Mareike Schomerus</text><text x="136" y="648" font-family="'Montserrat','Segoe UI',Arial,sans-serif" font-size="10" font-style="italic" fill="#64748B">Sole</text><rect x="296.0" y="637" width="9" height="9" rx="1.5" fill="#E2E8F0" fill-opacity="1"/><rect x="308.0" y="637" width="9" height="9" rx="1.5" fill="#E2E8F0" fill-opacity="1"/><line x1="130" y1="56" x2="130" y2="835" stroke="#CBD5E1" stroke-width="0.7"/><line x1="290" y1="56" x2="290" y2="835" stroke="#CBD5E1" stroke-width="0.7"/><line x1="390" y1="56" x2="390" y2="835" stroke="#CBD5E1" stroke-width="0.7"/><line x1="550" y1="56" x2="550" y2="835" stroke="#CBD5E1" stroke-width="0.7"/><text x="10" y="677" font-family="'Montserrat','Segoe UI',Arial,sans-serif" font-size="10.5" fill="#334155" font-style="italic">This sIfA was created using: Schomerus, M. (2026). sIfA Tool - Statement of Intellectual Fellowship and</text><text x="10" y="691" font-family="'Montserrat','Segoe UI',Arial,sans-serif" font-size="10.5" fill="#334155" font-style="italic">Accountability (Version 1.1) [Computer software]. Busara. https://doi.org/10.5281/zenodo.20285993</text><text x="10" y="711" font-family="'Montserrat','Segoe UI',Arial,sans-serif" font-size="10" fill="#64748B">The sIfA tool can be used and downloaded at www.busara.global or at https://github.com/mareikeschomerus-ctrl/sIfA.</text><text x="10" y="729" font-family="'Montserrat','Segoe UI',Arial,sans-serif" font-size="10" fill="#64748B">Released under the Apache License 2.0</text><text x="10" y="745" font-family="'Montserrat','Segoe UI',Arial,sans-serif" font-size="9" fill="#94A3B8">Generated 2026-05-19 20:52</text></g>
</svg>